<?xml version="1.0" encoding="UTF-8"?> <svg xmlns="http://www.w3.org/2000/svg" width="563" height="331" viewBox="0 0 563 331" fill="none"><path d="M71.3342 0.577144C100.937 0.38629 130.542 0.343744 160.144 0.449468C187.763 0.434365 219.54 -1.89846 245.88 4.21436C300.231 16.8299 317.271 63.4367 306.744 114.271C299.136 151.324 292.06 188.815 283.156 225.591C273.734 264.501 254.927 292.92 220.497 313.23C205.765 320.575 189.955 325.519 173.664 327.875C156.157 330.44 138.829 330.146 121.221 330.153L68.0979 330.19L28.19 330.227C19.5929 330.23 8.28471 330.547 0 329.408C7.66684 297.852 14.2873 264.052 21.2378 232.156L71.3342 0.577144ZM88.7006 261.015C116.199 256.42 158.793 266.862 185.027 253.192C200.169 244.696 209.249 233.794 213.301 216.783C218.187 196.26 222.584 175.068 226.871 154.318C229.909 137.691 234.826 120.928 235.861 104.061C236.119 99.85 233.502 91.6996 231.4 88.2711C219.289 68.5253 194.66 70.6219 174.708 70.5491C160.471 70.4983 146.218 70.81 132.042 70.3679C115.523 132.154 104.114 198.903 88.7006 261.015Z" fill="#131313"></path><path d="M413.255 0.85584C429.136 -0.38677 458.873 0.54554 475.737 0.573001C470.323 14.7923 465.456 29.0652 459.916 43.3682L479.672 43.165C483.161 30.6153 489.693 13.3836 494.057 0.470026L537.029 0.574362C532.098 14.968 527.349 29.4784 521.88 43.6717C532.27 42.6748 551.977 43.2817 562.838 43.2927C560.868 50.4888 555.44 63.9008 552.738 71.1752C538.837 70.7249 524.928 70.659 511.025 70.9789C509.341 79.5879 503.418 95.3134 500.416 104.483C489.391 103.187 471.702 103.506 460.203 103.443C463.836 92.209 467.655 81.0351 471.661 69.9285C484.952 69.5701 498.251 69.5578 511.544 69.8887C513.097 63.7429 517.463 52.2203 519.664 45.7422C507.536 46.1747 491.758 46.1157 479.65 45.7738C476.867 54.0341 474.025 62.2737 471.125 70.4928C451.566 70.8059 405.971 64.6738 396.352 84.064C384.497 107.958 415.543 115.139 431.786 121.226L472.214 136.265C504.251 147.896 534.877 155.666 533.874 196.882C533.177 225.424 526.016 251.373 514.018 277.156C494.205 311.891 465.394 330.191 425.154 329.851C359.373 329.293 291.869 331.527 226.246 329.543C247.615 315.243 264.234 302.218 278.628 280.175C282.318 274.523 285.18 265.907 288.702 261.345C296.407 257.733 407.777 261.63 425.743 260.122C435.353 259.316 443.983 255.537 450.248 248.013C455.98 241.127 460.102 230.921 459.105 221.833C458.563 216.883 456.191 213.729 452.203 210.895C444.726 205.58 434.538 202.816 426.005 199.654C405.657 192.112 350.567 173.97 335.8 161.864C325.435 153.367 319.911 140.759 318.798 127.551C316.332 98.3135 328.71 55.1668 347.628 32.7381C364.7 12.4952 387.209 2.95111 413.255 0.85584Z" fill="#131313"></path></svg> 